<?xml version="1.0" encoding="UTF-8"?><svg version="1.1" width="804px" height="754px" viewBox="0 0 804.0 754.0" xmlns="http://www.w3.org/2000/svg" xmlns:xlink="http://www.w3.org/1999/xlink"><defs><filter id="4548109120541175011248114" x="-12.2015915%" y="-11.2732095%" filterUnits="userSpaceOnUse" width="122.546419%" height="122.546419%"><feGaussianBlur stdDeviation="14.5" in="SourceAlpha" result="955011312055979911710745"></feGaussianBlur><feOffset dx="20" dy="27" in="955011312055979911710745" result="97575197117495010210857"></feOffset><feColorMatrix values="0 0 0 0.0 0 0 0 0 0.0 0 0 0 0 0.0 0 0 0 0 0.5 0" type="matrix" in="97575197117495010210857"></feColorMatrix></filter><clipPath id="10810511911697989512249107"><path d="M350,0 C543.299662,0 700,156.700338 700,350 C700,543.299662 543.299662,700 350,700 C156.700338,700 0,543.299662 0,350 C0,156.700338 156.700338,0 350,0 Z"></path></clipPath><filter id="1045497118122541021171060" x="-13.9433509%" y="-12.8824437%" filterUnits="userSpaceOnUse" width="125.764887%" height="125.764887%"><feGaussianBlur stdDeviation="14.5" in="SourceAlpha" result="9950122121103505710650120"></feGaussianBlur><feOffset dx="20" dy="27" in="9950122121103505710650120" result="11049113105056101554597"></feOffset><feColorMatrix values="0 0 0 0.0 0 0 0 0 0.0 0 0 0 0 0.0 0 0 0 0 0.5 0" type="matrix" in="11049113105056101554597"></feColorMatrix></filter><clipPath id="1161051201089949114541170"><path d="M302.906351,0 C470.196909,0 605.812702,135.615793 605.812702,302.906351 C605.812702,470.196909 470.196909,605.812702 302.906351,605.812702 C135.615793,605.812702 0,470.196909 0,302.906351 C0,135.615793 135.615793,0 302.906351,0 Z"></path></clipPath><clipPath id="11010612195122451209510457"><path d="M324.888889,0 L324.888889,129 L0,129 L0,0 L324.888889,0 Z"></path></clipPath><filter id="10150481111189511512198101" x="-9.88422964%" y="-111.15897%" filterUnits="userSpaceOnUse" width="114.315091%" height="269.605595%"><feGaussianBlur stdDeviation="4" in="SourceAlpha" result="120121985010611211455118117"></feGaussianBlur><feOffset dx="4" dy="5" in="120121985010611211455118117" result="113101011353102111010695"></feOffset><feColorMatrix values="0 0 0 0.0 0 0 0 0 0.0 0 0 0 0 0.0 0 0 0 0 0.5 0" type="matrix" in="113101011353102111010695"></feColorMatrix></filter><clipPath id="115119114114107491169599122"><path d=""></path></clipPath><filter id="5010010850951035256117114" x="-115.312197%" y="-9.21284973%" filterUnits="userSpaceOnUse" width="274.442752%" height="113.819275%"><feGaussianBlur stdDeviation="4" in="SourceAlpha" result="103521195710111810011212099"></feGaussianBlur><feOffset dx="4" dy="5" in="103521195710111810011212099" result="1200118459812112010311399"></feOffset><feColorMatrix values="0 0 0 0.0 0 0 0 0 0.0 0 0 0 0 0.0 0 0 0 0 0.5 0" type="matrix" in="1200118459812112010311399"></feColorMatrix></filter><clipPath id="1081124911910598107115112112"><path d="M1070.75534,0 L1070.75534,933 L0,933 L0,0 L1070.75534,0 Z"></path></clipPath><filter id="955711011310711611310711599" x="-4.35273341%" y="-6.11398964%" filterUnits="userSpaceOnUse" width="109.612286%" height="110.984456%"><feGaussianBlur stdDeviation="8" in="SourceAlpha" result="10711699106554810610511848"></feGaussianBlur><feOffset dx="21" dy="10" in="10711699106554810610511848" result="1221181115212211010755119105"></feOffset><feColorMatrix values="0 0 0 0.0 0 0 0 0 0.0 0 0 0 0 0.0 0 0 0 0 0.5 0" type="matrix" in="1221181115212211010755119105"></feColorMatrix></filter></defs><g transform="translate(28.36557328676281 0.0)"><path d="M350,2 C446.097546,2 533.097546,40.9512268 596.07316,103.92684 C659.048773,166.902454 698,253.902454 698,350 C698,446.097546 659.048773,533.097546 596.07316,596.07316 C533.097546,659.048773 446.097546,698 350,698 C253.902454,698 166.902454,659.048773 103.92684,596.07316 C40.9512268,533.097546 2,446.097546 2,350 C2,253.902454 40.9512268,166.902454 103.92684,103.92684 C166.902454,40.9512268 253.902454,2 350,2 Z" stroke="none" fill="#000000" filter="url(#4548109120541175011248114)"></path><g clip-path="url(#10810511911697989512249107)"><polygon points="0,0 700,0 700,700 0,700 0,0" stroke="none" fill="#8A79BF"></polygon><path d="M350,700 C543.299662,700 700,543.299662 700,350 C700,156.700338 543.299662,0 350,0 C156.700338,0 0,156.700338 0,350 C0,543.299662 156.700338,700 350,700 Z" stroke="#202125" stroke-width="28" fill="none" stroke-miterlimit="5"></path></g></g><g transform="translate(74.7101825567679 46.60097706383385)"><path d="M302.906351,2 C385.999345,2 461.225933,35.6800905 515.679272,90.1334297 C570.132611,144.586769 603.812702,219.813357 603.812702,302.906351 C603.812702,385.999345 570.132611,461.225933 515.679272,515.679272 C461.225933,570.132611 385.999345,603.812702 302.906351,603.812702 C219.813357,603.812702 144.586769,570.132611 90.1334297,515.679272 C35.6800905,461.225933 2,385.999345 2,302.906351 C2,219.813357 35.6800905,144.586769 90.1334297,90.1334297 C144.586769,35.6800905 219.813357,2 302.906351,2 Z" stroke="none" fill="#000000" filter="url(#1045497118122541021171060)"></path><g clip-path="url(#1161051201089949114541170)"><polygon points="0,0 605.812702,0 605.812702,605.812702 0,605.812702 0,0" stroke="none" fill="#474554"></polygon><path d="M302.906351,605.812702 C470.196909,605.812702 605.812702,470.196909 605.812702,302.906351 C605.812702,135.615793 470.196909,0 302.906351,0 C135.615793,0 0,135.615793 0,302.906351 C0,470.196909 135.615793,605.812702 302.906351,605.812702 Z" stroke="#202125" stroke-width="28" fill="none" stroke-miterlimit="5"></path></g></g><g transform="translate(460.0 306.0)"><g clip-path="url(#11010612195122451209510457)"><text transform="translate(123.44565557764474 56.0)" font-family="CrimsonPro-Light, Crimson Pro" font-size="63.0" font-weight="300" fill="#F0FFF1" text-anchor="center" letter-spacing="3.364872949024865">liii</text></g></g><g transform="translate(-43.0 306.0)"><g clip-path="url(#11010612195122451209510457)"><text transform="translate(136.4389464954196 56.0)" font-family="CrimsonPro-Light, Crimson Pro" font-size="63.0" font-weight="300" fill="#F0FFF1" text-anchor="center" letter-spacing="3.364872949024865">xi</text></g></g><g transform="translate(107.43168114594846 348.9769154228816)"><g filter="url(#10150481111189511512198101)"><polygon points="" stroke="none" fill="#000000"></polygon><path d="M269.396667,1.23666667 L0,0.473333333" stroke="#000000" stroke-width="8" fill="none" stroke-linecap="round" stroke-miterlimit="10"></path></g><g clip-path="url(#115119114114107491169599122)"><polygon points="0,0.473333333 269.396667,0.473333333 269.396667,1.23666667 0,1.23666667 0,0.473333333" stroke="none" fill="#FFFFFF"></polygon></g><path d="M269.396667,1.23666667 L0,0.473333333" stroke="#202125" stroke-width="10" fill="none" stroke-linecap="round" stroke-miterlimit="10"></path></g><g transform="translate(213.0 50.54545454545405)"><g clip-path="url(#11010612195122451209510457)"><text transform="translate(126.69693970840717 56.0)" font-family="CrimsonPro-Light, Crimson Pro" font-size="63.0" font-weight="300" fill="#F0FFF1" text-anchor="center" letter-spacing="3.364872949024865">xii</text></g></g><g transform="translate(376.11834781261587 69.45024875621675)"><g filter="url(#5010010850951035256117114)"><polygon points="" stroke="none" fill="#000000"></polygon><path d="M1.23666667,279.923333 L1.31333333,0" stroke="#000000" stroke-width="8" fill="none" stroke-linecap="round" stroke-miterlimit="10"></path></g><g clip-path="url(#115119114114107491169599122)"><polygon points="1.23666667,0 1.31333333,0 1.31333333,279.923333 1.23666667,279.923333 1.23666667,0" stroke="none" fill="#FFFFFF"></polygon></g><path d="M1.23666667,279.923333 L1.31333333,0" stroke="#202125" stroke-width="10" fill="none" stroke-linecap="round" stroke-miterlimit="10"></path></g><g transform="translate(-170.0 -129.8655815547827)"><g clip-path="url(#1081124911910598107115112112)"><g filter="url(#955711011310711611310711599)"><text transform="translate(148.56738603416034 644.0)" font-family="StardosStencil-Regular, Stardos Stencil" font-size="661.0" font-weight="normal" fill="#F0FFF1" text-anchor="center" letter-spacing="-3.237813428582233">cw</text></g><text transform="translate(148.56738603416034 644.0)" font-family="StardosStencil-Regular, Stardos Stencil" font-size="661.0" font-weight="normal" fill="#F0FFF1" text-anchor="center" letter-spacing="-3.237813428582233">cw</text></g></g><g transform="translate(216.0 573.0)"><g clip-path="url(#11010612195122451209510457)"><text transform="translate(136.6235168079196 56.0)" font-family="CrimsonPro-Light, Crimson Pro" font-size="63.0" font-weight="300" fill="#F0FFF1" text-anchor="center" letter-spacing="3.364872949024865">vi</text></g></g></svg>