<?xml version="1.0" encoding="UTF-8"?><svg version="1.1" width="753px" height="754px" viewBox="0 0 753.0 754.0" xmlns="http://www.w3.org/2000/svg" xmlns:xlink="http://www.w3.org/1999/xlink"><defs><filter id="1065599107534952105100108" x="-12.2015915%" y="-11.2732095%" filterUnits="userSpaceOnUse" width="122.546419%" height="122.546419%"><feGaussianBlur stdDeviation="14.5" in="SourceAlpha" result="05411111711857010611845"></feGaussianBlur><feOffset dx="20" dy="27" in="05411111711857010611845" result="459710411957565111854110"></feOffset><feColorMatrix values="0 0 0 0.0 0 0 0 0 0.0 0 0 0 0 0.0 0 0 0 0 0.5 0" type="matrix" in="459710411957565111854110"></feColorMatrix></filter><clipPath id="971221081111111101035148108"><path d="M350,0 C543.299662,0 700,156.700338 700,350 C700,543.299662 543.299662,700 350,700 C156.700338,700 0,543.299662 0,350 C0,156.700338 156.700338,0 350,0 Z"></path></clipPath><filter id="12295975710611949113120105" x="-13.9433509%" y="-12.8824437%" filterUnits="userSpaceOnUse" width="125.764887%" height="125.764887%"><feGaussianBlur stdDeviation="14.5" in="SourceAlpha" result="48116103103551031135710052"></feGaussianBlur><feOffset dx="20" dy="27" in="48116103103551031135710052" result="5510910657101113455010257"></feOffset><feColorMatrix values="0 0 0 0.0 0 0 0 0 0.0 0 0 0 0 0.0 0 0 0 0 0.5 0" type="matrix" in="5510910657101113455010257"></feColorMatrix></filter><clipPath id="110122115103121122555210355"><path d="M302.906351,0 C470.196909,0 605.812702,135.615793 605.812702,302.906351 C605.812702,470.196909 470.196909,605.812702 302.906351,605.812702 C135.615793,605.812702 0,470.196909 0,302.906351 C0,135.615793 135.615793,0 302.906351,0 Z"></path></clipPath><clipPath id="113100119554510611156114109"><path d="M324.888889,0 L324.888889,129 L0,129 L0,0 L324.888889,0 Z"></path></clipPath><filter id="971051101121181151051111200" x="-9.88422964%" y="-111.15897%" filterUnits="userSpaceOnUse" width="114.315091%" height="269.605595%"><feGaussianBlur stdDeviation="4" in="SourceAlpha" result="101110109575111910211411648"></feGaussianBlur><feOffset dx="4" dy="5" in="101110109575111910211411648" result="113994510311748525248107"></feOffset><feColorMatrix values="0 0 0 0.0 0 0 0 0 0.0 0 0 0 0 0.0 0 0 0 0 0.5 0" type="matrix" in="113994510311748525248107"></feColorMatrix></filter><clipPath id="5348107119111120116100121101"><path d=""></path></clipPath><filter id="10657451171011111141090114" x="-115.312197%" y="-9.21284973%" filterUnits="userSpaceOnUse" width="274.442752%" height="113.819275%"><feGaussianBlur stdDeviation="4" in="SourceAlpha" result="495210810011999110105110102"></feGaussianBlur><feOffset dx="4" dy="5" in="495210810011999110105110102" result="5411845541025110357113113"></feOffset><feColorMatrix values="0 0 0 0.0 0 0 0 0 0.0 0 0 0 0 0.0 0 0 0 0 0.5 0" type="matrix" in="5411845541025110357113113"></feColorMatrix></filter><clipPath id="1174998535411311051119121"><path d="M761,0 L761,559 L0,559 L0,0 L761,0 Z"></path></clipPath><filter id="521225049117115106055113" x="-6.05296343%" y="-9.98307953%" filterUnits="userSpaceOnUse" width="113.366961%" height="117.935702%"><feGaussianBlur stdDeviation="8" in="SourceAlpha" result="1191061021111009712056109113"></feGaussianBlur><feOffset dx="21" dy="10" in="1191061021111009712056109113" result="9911048110113100451211090"></feOffset><feColorMatrix values="0 0 0 0.0 0 0 0 0 0.0 0 0 0 0 0.0 0 0 0 0 0.5 0" type="matrix" in="9911048110113100451211090"></feColorMatrix></filter></defs><g transform="translate(6.365573286761901 0.0)"><path d="M350,2 C446.097546,2 533.097546,40.9512268 596.07316,103.92684 C659.048773,166.902454 698,253.902454 698,350 C698,446.097546 659.048773,533.097546 596.07316,596.07316 C533.097546,659.048773 446.097546,698 350,698 C253.902454,698 166.902454,659.048773 103.92684,596.07316 C40.9512268,533.097546 2,446.097546 2,350 C2,253.902454 40.9512268,166.902454 103.92684,103.92684 C166.902454,40.9512268 253.902454,2 350,2 Z" stroke="none" fill="#000000" filter="url(#1065599107534952105100108)"></path><g clip-path="url(#971221081111111101035148108)"><polygon points="0,0 700,0 700,700 0,700 0,0" stroke="none" fill="#8A79BF"></polygon><path d="M350,700 C543.299662,700 700,543.299662 700,350 C700,156.700338 543.299662,0 350,0 C156.700338,0 0,156.700338 0,350 C0,543.299662 156.700338,700 350,700 Z" stroke="#202125" stroke-width="28" fill="none" stroke-miterlimit="5"></path></g></g><g transform="translate(52.710182556767904 46.600977063830214)"><path d="M302.906351,2 C385.999345,2 461.225933,35.6800905 515.679272,90.1334297 C570.132611,144.586769 603.812702,219.813357 603.812702,302.906351 C603.812702,385.999345 570.132611,461.225933 515.679272,515.679272 C461.225933,570.132611 385.999345,603.812702 302.906351,603.812702 C219.813357,603.812702 144.586769,570.132611 90.1334297,515.679272 C35.6800905,461.225933 2,385.999345 2,302.906351 C2,219.813357 35.6800905,144.586769 90.1334297,90.1334297 C144.586769,35.6800905 219.813357,2 302.906351,2 Z" stroke="none" fill="#000000" filter="url(#12295975710611949113120105)"></path><g clip-path="url(#110122115103121122555210355)"><polygon points="0,0 605.812702,0 605.812702,605.812702 0,605.812702 0,0" stroke="none" fill="#474453"></polygon><path d="M302.906351,605.812702 C470.196909,605.812702 605.812702,470.196909 605.812702,302.906351 C605.812702,135.615793 470.196909,0 302.906351,0 C135.615793,0 0,135.615793 0,302.906351 C0,470.196909 135.615793,605.812702 302.906351,605.812702 Z" stroke="#202125" stroke-width="28" fill="none" stroke-miterlimit="5"></path></g></g><g transform="translate(438.0 306.0)"><g clip-path="url(#113100119554510611156114109)"><text transform="translate(123.44565557764474 56.0)" font-family="CrimsonPro-Light, Crimson Pro" font-size="63.0" font-weight="300" fill="#F0FFF1" text-anchor="center" letter-spacing="3.364872949024865">liii</text></g></g><g transform="translate(-65.00000000000091 306.0)"><g clip-path="url(#113100119554510611156114109)"><text transform="translate(136.4389464954196 56.0)" font-family="CrimsonPro-Light, Crimson Pro" font-size="63.0" font-weight="300" fill="#F0FFF1" text-anchor="center" letter-spacing="3.364872949024865">xi</text></g></g><g transform="translate(85.431681145948 348.9769154228816)"><g filter="url(#971051101121181151051111200)"><polygon points="" stroke="none" fill="#000000"></polygon><path d="M269.396667,1.23666667 L0,0.473333333" stroke="#000000" stroke-width="8" fill="none" stroke-linecap="round" stroke-miterlimit="10"></path></g><g clip-path="url(#5348107119111120116100121101)"><polygon points="0,0.473333333 269.396667,0.473333333 269.396667,1.23666667 0,1.23666667 0,0.473333333" stroke="none" fill="#FFFFFF"></polygon></g><path d="M269.396667,1.23666667 L0,0.473333333" stroke="#202125" stroke-width="10" fill="none" stroke-linecap="round" stroke-miterlimit="10"></path></g><g transform="translate(191.0 50.545454545459506)"><g clip-path="url(#113100119554510611156114109)"><text transform="translate(126.69693970840717 56.0)" font-family="CrimsonPro-Light, Crimson Pro" font-size="63.0" font-weight="300" fill="#F0FFF1" text-anchor="center" letter-spacing="3.364872949024865">xii</text></g></g><g transform="translate(354.11834781261496 69.45024875622039)"><g filter="url(#10657451171011111141090114)"><polygon points="" stroke="none" fill="#000000"></polygon><path d="M1.23666667,279.923333 L1.31333333,0" stroke="#000000" stroke-width="8" fill="none" stroke-linecap="round" stroke-miterlimit="10"></path></g><g clip-path="url(#5348107119111120116100121101)"><polygon points="1.23666667,0 1.31333333,0 1.31333333,279.923333 1.23666667,279.923333 1.23666667,0" stroke="none" fill="#FFFFFF"></polygon></g><path d="M1.23666667,279.923333 L1.31333333,0" stroke="#202125" stroke-width="10" fill="none" stroke-linecap="round" stroke-miterlimit="10"></path></g><g transform="translate(-25.0 26.134418445220945)"><g clip-path="url(#1174998535411311051119121)"><g transform="translate(0.0 -36.0)"><g filter="url(#521225049117115106055113)"><text transform="translate(6.0223607867094415 509.0)" font-family="Limelight-Regular, Limelight" font-size="559.0" font-weight="normal" fill="#F0FFF1" text-anchor="center" letter-spacing="-2.738181099209485">cw</text></g></g><g transform="translate(0.0 -36.0)"><text transform="translate(6.0223607867094415 509.0)" font-family="Limelight-Regular, Limelight" font-size="559.0" font-weight="normal" fill="#F0FFF1" text-anchor="center" letter-spacing="-2.738181099209485">cw</text></g></g></g><g transform="translate(194.0 573.0)"><g clip-path="url(#113100119554510611156114109)"><text transform="translate(136.6235168079196 56.0)" font-family="CrimsonPro-Light, Crimson Pro" font-size="63.0" font-weight="300" fill="#F0FFF1" text-anchor="center" letter-spacing="3.364872949024865">vi</text></g></g></svg>