<?xml version="1.0" encoding="UTF-8"?><svg version="1.1" width="443px" height="444px" viewBox="0 0 443.0 444.0" xmlns="http://www.w3.org/2000/svg" xmlns:xlink="http://www.w3.org/1999/xlink"><defs><filter id="52108995098104101107118115" x="-20.6950965%" y="-19.1204696%" filterUnits="userSpaceOnUse" width="138.240939%" height="138.240939%"><feGaussianBlur stdDeviation="14.5" in="SourceAlpha" result="511041224549105111525555"></feGaussianBlur><feOffset dx="20" dy="27" in="511041224549105111525555" result="105521055611310712011395117"></feOffset><feColorMatrix values="0 0 0 0.0 0 0 0 0 0.0 0 0 0 0 0.0 0 0 0 0 0.5 0" type="matrix" in="105521055611310712011395117"></feColorMatrix></filter><clipPath id="1061161201024811311511448114"><path d="M195.274876,0 C303.122211,0 390.549751,87.4275398 390.549751,195.274876 C390.549751,303.122211 303.122211,390.549751 195.274876,390.549751 C87.4275398,390.549751 0,303.122211 0,195.274876 C0,87.4275398 87.4275398,0 195.274876,0 Z"></path></clipPath><filter id="10710911312255117011298121" x="-23.4693878%" y="-21.6836735%" filterUnits="userSpaceOnUse" width="143.367347%" height="143.367347%"><feGaussianBlur stdDeviation="14.5" in="SourceAlpha" result="11501074545107121118117107"></feGaussianBlur><feOffset dx="20" dy="27" in="11501074545107121118117107" result="481074511450107110111109111"></feOffset><feColorMatrix values="0 0 0 0.0 0 0 0 0 0.0 0 0 0 0 0.0 0 0 0 0 0.5 0" type="matrix" in="481074511450107110111109111"></feColorMatrix></filter><clipPath id="45531021221055010511752102"><path d="M169,0 C262.336123,0 338,75.6638773 338,169 C338,262.336123 262.336123,338 169,338 C75.6638773,338 0,262.336123 0,169 C0,75.6638773 75.6638773,0 169,0 Z"></path></clipPath><clipPath id="10310110512010510012248118100"><path d="M419,0 L419,188 L0,188 L0,0 L419,0 Z"></path></clipPath><filter id="05311511212211211711850121" x="-2.81030445%" y="-7.65306122%" filterUnits="userSpaceOnUse" width="106.088993%" height="113.265306%"><feGaussianBlur stdDeviation="2" in="SourceAlpha" result="1155311411910210797106107115"></feGaussianBlur><feOffset dx="5" dy="2" in="1155311411910210797106107115" result="10911411811250117105102114114"></feOffset><feColorMatrix values="0 0 0 0.0 0 0 0 0 0.0 0 0 0 0 0.0 0 0 0 0 0.5 0" type="matrix" in="10911411811250117105102114114"></feColorMatrix></filter></defs><g transform="translate(6.143034825869563 3.637978807091713e-12)"><path d="M195.274876,2 C248.646259,2 296.964978,23.6330273 331.940851,58.6089004 C366.916724,93.5847736 388.549751,141.903492 388.549751,195.274876 C388.549751,248.646259 366.916724,296.964978 331.940851,331.940851 C296.964978,366.916724 248.646259,388.549751 195.274876,388.549751 C141.903492,388.549751 93.5847736,366.916724 58.6089004,331.940851 C23.6330273,296.964978 2,248.646259 2,195.274876 C2,141.903492 23.6330273,93.5847736 58.6089004,58.6089004 C93.5847736,23.6330273 141.903492,2 195.274876,2 Z" stroke="none" fill="#000000" filter="url(#52108995098104101107118115)"></path><g clip-path="url(#1061161201024811311511448114)"><polygon points="0,0 390.549751,0 390.549751,390.549751 0,390.549751 0,0" stroke="none" fill="#F6F6F6"></polygon><path d="M195.274876,390.549751 C303.122211,390.549751 390.549751,303.122211 390.549751,195.274876 C390.549751,87.4275398 303.122211,0 195.274876,0 C87.4275398,0 0,87.4275398 0,195.274876 C0,303.122211 87.4275398,390.549751 195.274876,390.549751 Z" stroke="#202125" stroke-width="28" fill="none" stroke-miterlimit="5"></path></g></g><g transform="translate(32.0 26.0)"><path d="M169,2 C215.115777,2 256.865777,20.6921117 287.086832,50.9131675 C317.307888,81.1342234 336,122.884223 336,169 C336,215.115777 317.307888,256.865777 287.086832,287.086832 C256.865777,317.307888 215.115777,336 169,336 C122.884223,336 81.1342234,317.307888 50.9131675,287.086832 C20.6921117,256.865777 2,215.115777 2,169 C2,122.884223 20.6921117,81.1342234 50.9131675,50.9131675 C81.1342234,20.6921117 122.884223,2 169,2 Z" stroke="none" fill="#000000" filter="url(#10710911312255117011298121)"></path><g clip-path="url(#45531021221055010511752102)"><polygon points="0,0 338,0 338,338 0,338 0,0" stroke="none" fill="#5865F2"></polygon><path d="M169,338 C262.336123,338 338,262.336123 338,169 C338,75.6638773 262.336123,0 169,0 C75.6638773,0 0,75.6638773 0,169 C0,262.336123 75.6638773,338 169,338 Z" stroke="#202125" stroke-width="28" fill="none" stroke-miterlimit="5"></path></g></g><g transform="translate(-10.0 101.0)"><g clip-path="url(#10310110512010510012248118100)"><g filter="url(#05311511212211211711850121)"><text transform="translate(53.99170495850086 148.0)" font-family="OriyaMN-Bold, Oriya MN" font-size="166.0" font-weight="bold" fill="#FFFFFF" text-anchor="center" letter-spacing="8.515619260249137">CW</text></g><text transform="translate(53.99170495850086 148.0)" font-family="OriyaMN-Bold, Oriya MN" font-size="166.0" font-weight="bold" fill="#FFFFFF" text-anchor="center" letter-spacing="8.515619260249137">CW</text></g></g></svg>