<?xml version="1.0" encoding="UTF-8"?><svg version="1.1" width="432px" height="425px" viewBox="0 0 432.0 425.0" xmlns="http://www.w3.org/2000/svg" xmlns:xlink="http://www.w3.org/1999/xlink"><defs><clipPath id="481005510011212050106107121"><path d="M431.859375,0 L431.859375,425 L0,425 L0,0 L431.859375,0 Z"></path></clipPath><clipPath id="12010799122501065511999118"><path d="M267.968751,0 L267.968751,52.3385413 L322.515625,52.3385413 L322.515625,104.677083 L377.067709,104.677083 L377.067709,156.979167 L431.619792,156.979167 L431.619792,425 L163.651043,425 L163.651043,372.630208 L109.098959,372.630208 L109.098959,320.296875 L54.546876,320.296875 L54.546876,267.958333 L0,267.958333 L0,0 L267.968751,0 Z M427.791667,160.807291 L377.067709,160.807291 L377.067709,372.630208 L167.536459,372.630208 L167.536459,421.166667 L427.791667,421.166667 L427.791667,160.807291 Z M373.239584,160.807291 L322.515625,160.807291 L322.515625,320.296875 L167.536459,320.296875 L167.536459,368.802083 L373.239584,368.802083 L373.239584,160.807291 Z M163.651043,320.296875 L112.927084,320.296875 L112.927084,368.802083 L163.651043,368.802083 L163.651043,320.296875 Z M163.708333,267.958333 L112.927084,267.958333 L112.927084,316.468749 L163.708333,316.468749 L163.708333,267.958333 Z M318.630209,160.807291 L267.906251,160.807291 L267.906251,267.958333 L167.536459,267.958333 L167.536459,316.468749 L318.630209,316.468749 L318.630209,160.807291 Z M109.098959,267.958333 L58.375,267.958333 L58.375,316.468749 L109.098959,316.468749 L109.098959,267.958333 Z M264.078125,56.1666667 L58.375,56.1666667 L58.375,264.130208 L109.098959,264.130208 L109.098959,104.677083 L264.078125,104.677083 L264.078125,56.1666667 Z M264.041667,108.505208 L112.927084,108.505208 L112.927084,264.130208 L163.708333,264.130208 L163.708333,156.979167 L264.041667,156.979167 L264.041667,108.505208 Z M167.536459,160.807291 L167.536459,264.130208 L264.041667,264.130208 L264.041667,160.838541 L167.536459,160.807291 Z M264.078125,3.82812533 L3.82812533,3.82812533 L3.82812533,264.130208 L54.546876,264.130208 L54.546876,52.3385413 L264.078125,52.3385413 L264.078125,3.82812533 Z M373.239584,108.479167 L322.515625,108.505208 L322.515625,156.979167 L373.239584,156.979167 L373.239584,108.479167 Z M318.593751,108.505208 L267.869792,108.505208 L267.869792,156.979167 L318.593751,156.979167 L318.593751,108.505208 Z M318.687501,56.1666667 L267.968751,56.1666667 L267.968751,104.677083 L318.687501,104.677083 L318.687501,56.1666667 Z"></path></clipPath></defs><g transform=""><g clip-path="url(#481005510011212050106107121)"><g transform=""><g transform="translate(0.05208266666659256 -5.684341886080802e-14)"><g clip-path="url(#12010799122501065511999118)"><polygon points="0,0 431.619792,0 431.619792,425 0,425 0,0" stroke="none" fill="#FEFEDF"></polygon></g></g></g></g></g></svg>