<?xml version="1.0" encoding="UTF-8"?><svg version="1.1" width="1047px" height="480" viewBox="0 0 1047.0 739.0" xmlns="http://www.w3.org/2000/svg" xmlns:xlink="http://www.w3.org/1999/xlink"><defs><clipPath id="1071011224810010945574551"><path d="M1047,0 L1047,739 L0,739 L0,0 L1047,0 Z"></path></clipPath><clipPath id="5697451001164511010511049"><path d="M894.489258,6.80169408 C897.008678,0.965750526 903.697566,-1.53536554 909.534823,0.965750526 C946.740658,17.2318804 979.759284,41.8528118 1010.48914,67.6976885 C1016.5393,72.9127816 1028.67511,81.2675786 1036.19789,89.8174992 C1040.79318,95.2277162 1043.91584,100.868531 1044.76748,106.083629 C1045.79654,112.132429 1043.29486,115.875237 1039.53347,118.589214 C1038.07859,119.635782 1035.98498,120.469489 1033.2704,120.895211 C1032.68135,120.973259 1031.69203,120.988868 1030.65105,120.979502 L1030.02305,120.971186 C1028.66103,120.947971 1027.32953,120.895211 1026.79442,120.895211 C1019.25389,122.757744 1011.73111,124.638014 1004.20833,126.73115 C967.854125,136.735619 927.933702,151.121478 895.961875,171.361014 C890.727862,174.695837 883.630898,173.028424 880.277583,167.81333 C876.94201,162.598233 878.609799,155.502865 883.843811,152.168042 C917.696327,130.686819 959.692616,115.254391 998.371073,104.8242 C998.779149,104.611339 999.400135,104.611339 999.825953,104.416215 C945.906764,85.8440932 887.605198,91.2720474 832.426301,104.611339 C727.923496,129.853112 670.047753,188.868836 624.48524,260.620743 C577.254944,334.873767 542.763696,422.253225 485.917006,501.508486 C434.304333,573.242656 312.467193,689.198705 200.015792,724.870669 C152.785491,739.87737 107.027816,740.923938 68.3671005,720.489278 C42.4454387,706.724264 19.4512736,683.362766 1.26530316,647.690803 C-1.64445684,642.067725 0.644317629,635.398079 6.28640215,632.471241 C11.9284912,629.757259 18.8302881,632.063256 21.7577848,637.686334 C37.2114262,668.338324 56.657109,688.790721 79.0125472,700.462603 C112.6699,718.183286 152.16451,716.320748 193.131737,703.389441 C300.97011,669.17203 417.786146,557.402248 467.322959,488.577179 C523.956736,409.729899 558.022165,322.563306 605.039558,248.736 C653.529567,172.194717 715.397356,109.631313 826.784216,82.7221313 C878.822708,70.2165418 933.575787,64.7885876 985.401369,76.8861877 C959.28454,55.1921036 931.269275,35.3782851 900.344251,21.8261323 C894.489258,19.3250163 891.987575,12.6376331 894.489258,6.80169408 Z"></path></clipPath></defs><g clip-path="url(#1071011224810010945574551)"><g transform="translate(0.0 2.0)"><g clip-path="url(#5697451001164511010511049)"><polygon points="0,-2.85327317e-14 1045,-2.85327317e-14 1045,736 0,736 0,-2.85327317e-14" stroke="none" fill="#9A9AFF"></polygon></g></g></g></svg>