<?xml version="1.0" encoding="UTF-8"?><svg version="1.1" width="284px" height="307px" viewBox="0 0 284.0 307.0" xmlns="http://www.w3.org/2000/svg" xmlns:xlink="http://www.w3.org/1999/xlink"><defs><clipPath id="1171025012156111113010748"><path d="M237.927346,0.467160991 C238.479429,0.743202325 238.94297,1.12861832 239.323178,1.61820232 C239.703388,2.10778632 239.958596,2.65466099 240.088804,3.25882766 C240.088804,4.24320232 238.989845,5.47236899 238.052346,6.19111966 C237.166929,6.67028499 236.229429,6.85257699 235.234637,6.74841032 C204.422137,6.31611966 175.26068,14.279661 146.531512,24.415077 C120.00547,33.8109103 94.5783878,45.5504943 71.5419292,62.0036183 C56.8544292,72.0817437 43.9794292,84.1234103 32.9169292,98.1182023 C8.26588782,130.336952 2.14609582,166.347369 11.8179705,205.456744 C14.2658878,214.758828 18.3492212,223.269244 24.0575545,230.982786 C29.6721372,238.821328 35.7294292,246.331744 41.7502625,253.862994 C42.7919292,255.159869 43.7919292,256.409869 44.8908878,257.659869 C48.5471372,261.868202 43.9742212,264.514036 40.9325545,260.883828 C38.8960958,258.524453 36.8544292,256.222369 34.8127625,253.925494 C30.3023465,248.961952 25.9585958,243.852577 21.6721372,238.701536 C7.04192915,221.055702 1.06276249,200.326536 0.125262487,177.758828 C-1.55182151,137.62341 13.6721372,104.644244 42.1408878,77.2119517 C58.8752625,61.3629943 77.5367212,48.295285 98.1304705,38.0192437 C114.104429,29.790077 130.588804,22.7692437 147.578388,16.9567437 C164.573178,11.1442437 181.896096,6.60778632 199.547137,3.34216099 C206.26068,2.12861832 213.114845,1.59736899 219.948178,0.941119658 C224.500262,0.487994325 229.052346,0.305702325 233.620054,0.0765356578 C235.083596,-0.100547009 236.521096,0.0296609912 237.927346,0.467160991 Z"></path></clipPath><clipPath id="1211171191085751117112106114"><path d="M88,0 L88,99.3333333 L0,99.3333333 L0,0 L88,0 Z"></path></clipPath><clipPath id="5410757109545611049980"><path d="M0.190801425,0 C1.43559209,0.229166667 2.62309342,0.619792 3.76371742,1.17187467 C21.7220508,13.3593747 41.8783014,21.1562507 61.2220508,30.5520827 C65.7741348,32.7708333 70.4251761,34.8020827 74.8574681,37.2031253 C78.2637174,39.0937493 81.5501761,41.1875 84.7116348,43.4791667 C87.2637174,45.2864587 87.2637174,47.5833333 84.9355921,49.635416 C84.0501761,50.375 83.1230934,51.057292 82.1595508,51.6875 C63.5658014,65.2031253 44.9564268,78.755208 26.3314268,92.3385413 C23.7272588,94.2812507 21.0033014,96.0468747 18.1699681,97.630208 C15.6387174,99.005208 13.4355921,98.5364587 12.5397601,96.7916667 C12.3053841,96.3489587 12.1647601,95.880208 12.1126761,95.380208 C12.0605921,94.880208 12.1074681,94.3958333 12.2480934,93.9114587 C12.3835094,93.432292 12.6074681,92.994792 12.9147601,92.6041667 C13.2272588,92.2083333 13.5970508,91.8906253 14.0293428,91.6406253 C16.8210094,89.385416 19.5137174,86.9843747 22.4564268,84.932292 C39.7585094,72.9062507 57.1439254,60.9843747 74.4668428,49 C75.7116348,48.0989587 76.9980934,47.192708 78.9355921,45.739584 C76.5085094,44.3020827 74.6699681,43.0937493 72.6335094,42.0833333 C57.6335094,34.9062507 42.5762174,27.7239587 27.5762174,20.619792 C18.8158014,16.567708 10.6439254,11.557292 3.05017609,5.58333333 C2.81168935,5.38843207 2.55593286,5.19872471 2.29766823,5.00434967 L2.03911428,4.80805349 C0.747631619,3.81514066 -0.483540681,2.62335579 0.190801425,0 Z"></path></clipPath></defs><g transform="translate(-1.1368683772161603e-13 43.465131008817764)"><g clip-path="url(#1171025012156111113010748)"><polygon points="6.35602682e-15,-3.06699111e-14 240.088804,-3.06699111e-14 240.088804,262.596742 6.35602682e-15,262.596742 6.35602682e-15,-3.06699111e-14" stroke="none" fill="#9A9AFF"></polygon></g></g><g transform="translate(195.77109581989407 0.0)"><g clip-path="url(#1211171191085751117112106114)"><g transform="translate(0.9498239086306057 0.0)"><g clip-path="url(#5410757109545611049980)"><polygon points="-2.04281037e-14,0 86.6546553,0 86.6546553,98.4315805 -2.04281037e-14,98.4315805 -2.04281037e-14,0" stroke="none" fill="#9A9AFF"></polygon></g></g></g></g></svg>