<?xml version="1.0" encoding="UTF-8"?><svg version="1.1" width="907px" height="626px" viewBox="0 0 907.0 626.0" xmlns="http://www.w3.org/2000/svg" xmlns:xlink="http://www.w3.org/1999/xlink"><defs><clipPath id="5445985148113103107118115"><path d="M38.0208333,0 C43.9218747,0 49.0937507,1.16666667 53.5416667,3.5 C58,5.83333333 61.5260413,9.22395867 64.125,13.6666667 L64.125,1.5625 L89.7291667,1.5625 L89.7291667,75.7708333 C89.7291667,82.1875 88.5416667,87.9843747 86.1666667,93.1666667 C83.7916667,98.3437507 80.4218747,102.739583 76.0625,106.354167 C71.7135413,109.979167 66.4843747,112.796875 60.375,114.8125 C54.2760413,116.838541 47.5,117.854167 40.0416667,117.854167 C31.3437507,117.854167 23.7916667,116.505208 17.375,113.8125 C10.9583333,111.114583 5.26041733,107.234375 0.291666667,102.166667 L15.8333333,86.0208333 C18.8333333,88.8125 22.427084,91.1666667 26.625,93.0833333 C30.817708,95 35.2916667,95.9583333 40.0416667,95.9583333 C42.7343747,95.9583333 45.2968747,95.5937507 47.7291667,94.875 C50.1562493,94.1510413 52.302084,92.9843747 54.1666667,91.375 C56.0416667,89.7760413 57.5208333,87.677084 58.6041667,85.0833333 C59.6875,82.5 60.2291667,79.3958333 60.2291667,75.7708333 L60.2291667,70.5 C57.8541667,74.8489587 54.4635413,78.057292 50.0625,80.125 C45.6562493,82.197916 40.817708,83.2291667 35.5416667,83.2291667 C30.2604173,83.2291667 25.4218747,82.1666667 21.0208333,80.0416667 C16.630208,77.9166667 12.880208,75.0208333 9.77083333,71.3541667 C6.65624933,67.677084 4.25,63.3541667 2.54166667,58.3958333 C0.843750667,53.427084 0,48.0364587 0,42.2291667 C0,36.1354173 0.927084,30.494792 2.79166667,25.3125 C4.65104133,20.1354173 7.26041733,15.682292 10.625,11.9583333 C13.9843747,8.23958267 17.9895827,5.3125 22.6458333,3.1875 C27.3125,1.0625 32.4375,0 38.0208333,0 Z M44.8541667,24.8541667 C42.7812493,24.8541667 40.8437507,25.3489587 39.0416667,26.3333333 C37.2343747,27.307292 35.6562493,28.5989587 34.3125,30.2083333 C32.9635413,31.807292 31.9218747,33.7239587 31.1875,35.9583333 C30.4635413,38.182292 30.1041667,40.5364587 30.1041667,43.0208333 C30.1041667,48.0937507 31.6041667,52.182292 34.6041667,55.2916667 C37.6145827,58.3906253 41.447916,59.9375 46.1041667,59.9375 C49.1041667,59.9375 51.7135413,59.244792 53.9375,57.8541667 C56.1718747,56.4531253 58.2708333,54.3541667 60.2291667,51.5625 L60.2291667,36.9583333 C58.7812493,33.2395827 56.6354173,30.2916667 53.7916667,28.125 C50.942708,25.947916 47.9635413,24.8541667 44.8541667,24.8541667 Z"></path></clipPath><clipPath id="95113100115113985010311249"><path d="M44.7083333,0 C51.9583333,0 58.375,1.16666667 63.9583333,3.5 C69.5520827,5.83333333 74.239584,8.947916 78.0208333,12.8333333 C81.7968747,16.7083333 84.6458333,21.2083333 86.5625,26.3333333 C88.4791667,31.447916 89.4375,36.802084 89.4375,42.3958333 C89.4375,43.9531253 89.3541667,45.5364587 89.1875,47.1458333 C89.0312507,48.744792 88.8541667,50.1614587 88.6458333,51.3958333 L31.3541667,51.3958333 C31.6562507,55.744792 33.260416,58.875 36.1666667,60.7916667 C39.067708,62.7083333 42.2291667,63.6666667 45.6458333,63.6666667 C48.8541667,63.6666667 51.880208,62.947916 54.7291667,61.5 C57.5729173,60.0416667 59.4635413,58.0208333 60.3958333,55.4375 L85.3958333,62.5833333 C82.0729173,69.0989587 76.9687493,74.432292 70.0833333,78.5833333 C63.2083333,82.7239587 54.75,84.7916667 44.7083333,84.7916667 C37.567708,84.7916667 31.1979173,83.677084 25.6041667,81.4583333 C20.0208333,79.2239587 15.3385413,76.197916 11.5625,72.375 C7.78125067,68.5416667 4.90625067,64.1406253 2.9375,59.1666667 C0.979166667,54.197916 0,48.9687507 0,43.4791667 C0,37.5781253 0.947917333,31.9895827 2.85416667,26.7083333 C4.77083333,21.432292 7.614584,16.8281253 11.3958333,12.8958333 C15.1718747,8.96875067 19.8333333,5.83333333 25.375,3.5 C30.9166667,1.16666667 37.3593747,0 44.7083333,0 Z M44.25,20.9583333 C40.510416,20.9583333 37.4583333,22.0989587 35.0833333,24.375 C32.7083333,26.6562493 31.255208,29.7604173 30.7291667,33.6875 L57.75,33.6875 C57.2343747,29.7604173 55.7812507,26.6562493 53.3958333,24.375 C51.0208333,22.0989587 47.9687493,20.9583333 44.25,20.9583333 Z"></path></clipPath><clipPath id="11950574812211855114110100"><path d="M39.5833333,0 L39.5833333,25.625 L55.5833333,25.625 L55.5833333,47.8125 L39.5833333,47.8125 L39.5833333,74.8333333 C39.5833333,77.5312507 40.1510413,79.4270827 41.2916667,80.5208333 C42.4270827,81.6041667 43.9843747,82.1458333 45.9583333,82.1458333 C47.4010413,82.1458333 49.0520827,81.9166667 50.9166667,81.4583333 C52.7760413,80.989584 54.6458333,80.3333333 56.5208333,79.5 L61.7916667,102.791667 C57.6510413,104.557292 53.2291667,106.036459 48.5208333,107.229167 C43.8125,108.406251 39.1770827,109 34.625,109 C31.3020827,109 28.1458333,108.583333 25.1458333,107.75 C22.1458333,106.932292 19.5260413,105.593749 17.2916667,103.729167 C15.067708,101.854167 13.3125,99.4166667 12.0208333,96.4166667 C10.7291667,93.4166667 10.0833333,89.6979173 10.0833333,85.25 L10.0833333,47.8125 L0,47.8125 L0,25.625 L10.0833333,25.625 L10.0833333,0 L39.5833333,0 Z"></path></clipPath><clipPath id="116106116102106521081090102"><path d="M39.125,0 C44.6093747,0 50.4843747,0.781250667 56.75,2.33333333 C63.010416,3.875 69.4062507,6.14583333 75.9375,9.14583333 L64.6041667,27.9375 C58.7968747,25.244792 53.9791667,23.307292 50.1458333,22.125 C46.3229173,20.932292 42.6510413,20.3333333 39.125,20.3333333 C36.8437493,20.3333333 35.005208,20.6770827 33.6041667,21.3541667 C32.2135413,22.0208333 31.5208333,23.0781253 31.5208333,24.5208333 C31.5208333,25.3541667 31.7291667,26.057292 32.1458333,26.625 C32.5625,27.1979173 33.2812507,27.739584 34.3125,28.25 C35.3541667,28.7656253 36.7760413,29.307292 38.5833333,29.875 C40.4010413,30.4479173 42.6510413,31.0416667 45.3333333,31.6666667 C51.5520827,33.2239587 56.7812507,34.8541667 61.0208333,36.5625 C65.2708333,38.2708333 68.6562507,40.1406253 71.1875,42.1666667 C73.7291667,44.182292 75.5416667,46.4583333 76.625,49 C77.7083333,51.5312507 78.25,54.4479173 78.25,57.75 C78.25,66.1406253 75.067708,72.7708333 68.7083333,77.6458333 C62.3437493,82.510416 53.6770827,84.9375 42.7083333,84.9375 C39.2916667,84.9375 35.6093747,84.6718747 31.6666667,84.1458333 C27.7343747,83.630208 23.880208,82.9687493 20.1041667,82.1458333 C16.3229173,81.3125 12.6718747,80.3020827 9.14583333,79.1041667 C5.630208,77.9114587 2.58333333,76.5937493 0,75.1458333 L11.3333333,55.125 C17.0260413,58.125 22.4583333,60.4062507 27.625,61.9583333 C32.8020827,63.5 37.625,64.2708333 42.0833333,64.2708333 C47.260416,64.2708333 49.8541667,62.9791667 49.8541667,60.3958333 C49.8541667,59.0520827 48.8125,57.864584 46.7291667,56.8333333 C44.6562507,55.7916667 40.7291667,54.5520827 34.9375,53.1041667 C29.1458333,51.5520827 24.2760413,49.994792 20.3333333,48.4375 C16.4010413,46.885416 13.239584,45.1562507 10.8541667,43.25 C8.47916667,41.3333333 6.77083333,39.2083333 5.72916667,36.875 C4.69791733,34.5416667 4.1875,31.8281253 4.1875,28.7291667 C4.1875,24.5781253 5.04166667,20.744792 6.75,17.2291667 C8.45833333,13.7187493 10.864584,10.6666667 13.9791667,8.08333333 C17.0885413,5.489584 20.7916667,3.494792 25.0833333,2.10416667 C29.375,0.703125333 34.0520827,0 39.125,0 Z"></path></clipPath><clipPath id="1151104899574511710557113"><path d="M40.5208333,0 C53.5625,0 63.6041667,2.90624933 70.6458333,8.70833333 C77.6875,14.5 81.2083333,23.197916 81.2083333,34.7916667 L81.2083333,50.625 C81.2083333,53.4166667 81.7187493,55.3645827 82.75,56.4583333 C83.7916667,57.5416667 85.6510413,58.1875 88.3333333,58.3958333 L88.3333333,83.2291667 C85.6510413,83.7395827 83.114584,84.130208 80.7291667,84.3958333 C78.3541667,84.6562493 76.2343747,84.7916667 74.375,84.7916667 C69.0833333,84.7916667 65.0625,83.8333333 62.3125,81.9166667 C59.5729173,80 57.7968747,77.177084 56.9791667,73.4375 L56.3541667,70.5 C52.7291667,75.1562493 48.5312507,78.7031253 43.7708333,81.1458333 C39.0208333,83.572916 33.9479173,84.7916667 28.5625,84.7916667 C24.5208333,84.7916667 20.7343747,84.1145827 17.2083333,82.7708333 C13.692708,81.427084 10.6666667,79.5833333 8.125,77.25 C5.59374933,74.9166667 3.60937467,72.1458333 2.16666667,68.9375 C0.718749333,65.7291667 0,62.2656253 0,58.5416667 C0,54.4062493 0.875,50.625 2.625,47.2083333 C4.385416,43.7916667 6.817708,40.8437507 9.91666667,38.3541667 C13.0260413,35.869792 16.7291667,33.9531253 21.0208333,32.6041667 C25.3229173,31.2604173 30.0625,30.5833333 35.2291667,30.5833333 C41.8541667,30.5833333 47.3385413,31.619792 51.6875,33.6875 L51.6875,31.2083333 C51.6875,27.375 50.5729173,24.5312493 48.3541667,22.6666667 C46.130208,20.807292 42.5312507,19.875 37.5625,19.875 C32.9062507,19.875 28.6093747,20.625 24.6666667,22.125 C20.7343747,23.625 16.5937493,25.8281253 12.25,28.7291667 L3.70833333,10.4166667 C14.4843747,3.47395867 26.755208,0 40.5208333,0 Z M40.3541667,46.5833333 C36.739584,46.5833333 33.739584,47.4687507 31.3541667,49.2291667 C28.9791667,50.9791667 27.7916667,53.2031253 27.7916667,55.8958333 C27.7916667,58.177084 28.692708,60.0416667 30.5,61.5 C32.317708,62.947916 34.625,63.6666667 37.4166667,63.6666667 C39.1666667,63.6666667 40.9687493,63.3854173 42.8333333,62.8125 C44.7083333,62.244792 46.364584,61.494792 47.8125,60.5625 C48.9479173,59.7291667 49.880208,58.8281253 50.6041667,57.8541667 C51.3229173,56.869792 51.6875,55.8541667 51.6875,54.8125 L51.6875,48.75 C49.9375,48.1406253 48.0260413,47.625 45.9583333,47.2083333 C43.885416,46.7916667 42.0208333,46.5833333 40.3541667,46.5833333 Z"></path></clipPath><clipPath id="1031011165611810410911248118"><path d="M55.4166667,0.166666667 L55.4166667,26.7083333 C49.7343747,26.7083333 44.5625,27.3333333 39.8958333,28.5833333 C35.239584,29.822916 31.7760413,31.8906253 29.5,34.7916667 L29.5,83.2291667 L0,83.2291667 L0,1.5625 L27.0208333,1.5625 L27.0208333,17.0833333 C29.9062507,11.5989587 33.5,7.38541733 37.7916667,4.4375 C42.0937493,1.47916667 46.7343747,0 51.7083333,0 C53.6666667,0 54.9010413,0.057292 55.4166667,0.166666667 Z"></path></clipPath><clipPath id="1211121111115299117109118108"><path d="M44.7083333,0 C51.9583333,0 58.375,1.16666667 63.9583333,3.5 C69.5520827,5.83333333 74.239584,8.947916 78.0208333,12.8333333 C81.7968747,16.7083333 84.6458333,21.2083333 86.5625,26.3333333 C88.4791667,31.447916 89.4375,36.802084 89.4375,42.3958333 C89.4375,43.9531253 89.3541667,45.5364587 89.1875,47.1458333 C89.0312507,48.744792 88.8541667,50.1614587 88.6458333,51.3958333 L31.3541667,51.3958333 C31.6562507,55.744792 33.260416,58.875 36.1666667,60.7916667 C39.067708,62.7083333 42.2291667,63.6666667 45.6458333,63.6666667 C48.8541667,63.6666667 51.880208,62.947916 54.7291667,61.5 C57.5729173,60.0416667 59.4635413,58.0208333 60.3958333,55.4375 L85.3958333,62.5833333 C82.0729173,69.0989587 76.9687493,74.432292 70.0833333,78.5833333 C63.2083333,82.7239587 54.75,84.7916667 44.7083333,84.7916667 C37.567708,84.7916667 31.1979173,83.677084 25.6041667,81.4583333 C20.0208333,79.2239587 15.3385413,76.197916 11.5625,72.375 C7.78125067,68.5416667 4.90625067,64.1406253 2.9375,59.1666667 C0.979166667,54.197916 0,48.9687507 0,43.4791667 C0,37.5781253 0.947917333,31.9895827 2.85416667,26.7083333 C4.77083333,21.432292 7.614584,16.8281253 11.3958333,12.8958333 C15.1718747,8.96875067 19.8333333,5.83333333 25.375,3.5 C30.9166667,1.16666667 37.3593747,0 44.7083333,0 Z M44.25,20.9583333 C40.510416,20.9583333 37.4583333,22.0989587 35.0833333,24.375 C32.7083333,26.6562493 31.255208,29.7604173 30.7291667,33.6875 L57.75,33.6875 C57.2343747,29.7604173 55.7812507,26.6562493 53.3958333,24.375 C51.0208333,22.0989587 47.9687493,20.9583333 44.25,20.9583333 Z"></path></clipPath><clipPath id="1221191071021171141171034997"><path d="M89.8958333,0 L89.8958333,80.75 C89.8958333,83.5416667 90.4062493,85.4895827 91.4375,86.5833333 C92.4791667,87.6666667 94.3437507,88.3125 97.0416667,88.5208333 L97.0416667,113.354167 C94.0416667,113.864583 91.4010413,114.255208 89.125,114.520833 C86.8437507,114.781249 84.822916,114.916667 83.0625,114.916667 C73.0208333,114.916667 67.2291667,111.135417 65.6875,103.5625 L65.0625,100.625 C62.2708333,105.598959 58.4895827,109.223959 53.7291667,111.5 C48.9635413,113.776041 43.8854173,114.916667 38.5,114.916667 C32.9166667,114.916667 27.7708333,113.880208 23.0625,111.8125 C18.3541667,109.729167 14.2916667,106.802084 10.875,103.020833 C7.45833333,99.244792 4.79166667,94.744792 2.875,89.5208333 C0.958333333,84.302084 0,78.5781253 0,72.3541667 C0,66.3541667 0.875,60.7708333 2.625,55.6041667 C4.38541733,50.427084 6.84375067,45.947916 10,42.1666667 C13.1666667,38.3906253 16.9218747,35.4375 21.2708333,33.3125 C25.6145827,31.1875 30.427084,30.125 35.7083333,30.125 C40.9843747,30.125 45.822916,31.322916 50.2291667,33.7083333 C54.630208,36.0833333 58.0208333,39.447916 60.3958333,43.7916667 L60.3958333,0 L89.8958333,0 Z M45.3333333,54.9791667 C43.1666667,54.9791667 41.1718747,55.447916 39.3541667,56.375 C37.5468747,57.307292 36,58.5989587 34.7083333,60.25 C33.4166667,61.9062493 32.380208,63.822916 31.6041667,66 C30.822916,68.1666667 30.4375,70.494792 30.4375,72.9791667 C30.4375,78.1614587 31.9062493,82.307292 34.8541667,85.4166667 C37.8125,88.5156253 41.7187507,90.0625 46.5833333,90.0625 C51.9687507,90.0625 56.630208,87.2708333 60.5625,81.6875 L60.5625,67.0833333 C59.1041667,63.4583333 56.9791667,60.5364587 54.1875,58.3125 C51.3958333,56.0937507 48.442708,54.9791667 45.3333333,54.9791667 Z"></path></clipPath><clipPath id="114108115116108103501161060"><path d="M27.7916667,0 L47.5208333,54.8125 L52.6458333,37.25 L38.0416667,0 L61.5,0 L68.4791667,23.8958333 L75.4583333,0 L98.9166667,0 L84.3125,37.25 L89.4375,54.8125 L109.166667,0 L136.958333,0 L103.5625,81.6666667 L79.5,81.6666667 L68.4791667,50.6041667 L57.4583333,81.6666667 L33.3958333,81.6666667 L0,0 L27.7916667,0 Z"></path></clipPath><clipPath id="112108109951161025653119101"><path d="M29.5,31.6875 L29.5,113.354167 L0,113.354167 L0,31.6875 L29.5,31.6875 Z M29.5,0 L29.5,24.8541667 L0,24.8541667 L0,0 L29.5,0 Z"></path></clipPath><clipPath id="108491205410311610557120120"><path d="M29.5,0 L29.5,43.7916667 C32.385416,39.3489587 36.1562507,35.9583333 40.8125,33.625 C45.4791667,31.2916667 50.7135413,30.125 56.5208333,30.125 C62.2135413,30.125 66.760416,31.1145827 70.1666667,33.0833333 C73.5833333,35.0416667 76.1718747,37.5 77.9375,40.4583333 C79.6979173,43.4062493 80.8385413,46.5833333 81.3541667,50 C81.864584,53.4166667 82.125,56.625 82.125,59.625 L82.125,113.354167 L52.625,113.354167 L52.625,67.3958333 C52.625,63.3541667 51.7135413,60.432292 49.8958333,58.625 C48.0885413,56.807292 45.8437493,55.8958333 43.1666667,55.8958333 C42.2343747,55.8958333 41.114584,56.182292 39.8125,56.75 C38.5208333,57.322916 37.2291667,58.0989587 35.9375,59.0833333 C34.6458333,60.072916 33.4270827,61.2916667 32.2916667,62.75 C31.1510413,64.197916 30.2187493,65.7916667 29.5,67.5416667 L29.5,113.354167 L0,113.354167 L0,0 L29.5,0 Z"></path></clipPath><clipPath id="494845571029850109114114"><path d="M44.875,0 C54.8020827,0 63.1041667,2.072916 69.7708333,6.20833333 C76.4479173,10.3489587 81.4479173,15.682292 84.7708333,22.2083333 L56.0416667,30.8958333 C53.25,26.869792 49.4687493,24.8541667 44.7083333,24.8541667 C40.6666667,24.8541667 37.25,26.3854173 34.4583333,29.4375 C31.6666667,32.4791667 30.2708333,36.802084 30.2708333,42.3958333 C30.2708333,47.9791667 31.6666667,52.302084 34.4583333,55.3541667 C37.25,58.4114587 40.6666667,59.9375 44.7083333,59.9375 C49.4687493,59.9375 53.25,57.9166667 56.0416667,53.875 L84.7708333,62.5833333 C81.4479173,69.0989587 76.4479173,74.432292 69.7708333,78.5833333 C63.1041667,82.7239587 54.8020827,84.7916667 44.875,84.7916667 C37.625,84.7916667 31.1979173,83.625 25.6041667,81.2916667 C20.0208333,78.9583333 15.3385413,75.8541667 11.5625,71.9791667 C7.78125067,68.0937507 4.90625067,63.5833333 2.9375,58.4583333 C0.979166667,53.3333333 0,47.9791667 0,42.3958333 C0,36.802084 0.979166667,31.447916 2.9375,26.3333333 C4.90625067,21.2083333 7.78125067,16.7083333 11.5625,12.8333333 C15.3385413,8.947916 20.0208333,5.83333333 25.6041667,3.5 C31.1979173,1.16666667 37.625,0 44.875,0 Z"></path></clipPath><clipPath id="54511059710055110051100"><path d="M29.5,0 L29.5,78.875 C29.5,85.0989587 32.0416667,88.2083333 37.125,88.2083333 C38.3593747,88.2083333 39.697916,88 41.1458333,87.5833333 C42.6041667,87.1666667 43.947916,86.5989587 45.1875,85.875 L48.9166667,109.625 C45.4010413,111.281249 41.442708,112.572916 37.0416667,113.5 C32.6354173,114.442708 28.4687507,114.916667 24.5416667,114.916667 C16.677084,114.916667 10.625,112.895833 6.375,108.854167 C2.125,104.8125 0,98.9687507 0,91.3125 L0,0 L29.5,0 Z"></path></clipPath><clipPath id="11248525111612110956108120"><path d="M29.5,0 L29.5,61.9583333 L51.2291667,31.6875 L82.2916667,31.6875 L54.1875,67.3958333 L85.0833333,113.354167 L53.875,113.354167 L35.3958333,83.5416667 L29.5,90.0625 L29.5,113.354167 L0,113.354167 L0,0 L29.5,0 Z"></path></clipPath><clipPath id="10545114112100112114107106100"><path d="M44.7083333,0 C51.9583333,0 58.375,1.16666667 63.9583333,3.5 C69.5520827,5.83333333 74.239584,8.947916 78.0208333,12.8333333 C81.7968747,16.7083333 84.6458333,21.2083333 86.5625,26.3333333 C88.4791667,31.447916 89.4375,36.802084 89.4375,42.3958333 C89.4375,47.9791667 88.4791667,53.3333333 86.5625,58.4583333 C84.6458333,63.5833333 81.7968747,68.0937507 78.0208333,71.9791667 C74.239584,75.8541667 69.5520827,78.9583333 63.9583333,81.2916667 C58.375,83.625 51.9583333,84.7916667 44.7083333,84.7916667 C37.3593747,84.7916667 30.9166667,83.625 25.375,81.2916667 C19.8333333,78.9583333 15.1718747,75.8541667 11.3958333,71.9791667 C7.614584,68.0937507 4.77083333,63.5833333 2.85416667,58.4583333 C0.947917333,53.3333333 0,47.9791667 0,42.3958333 C0,36.802084 0.947917333,31.447916 2.85416667,26.3333333 C4.77083333,21.2083333 7.614584,16.7083333 11.3958333,12.8333333 C15.1718747,8.947916 19.8333333,5.83333333 25.375,3.5 C30.9166667,1.16666667 37.3593747,0 44.7083333,0 Z M44.7083333,24.8541667 C40.4583333,24.8541667 36.9843747,26.4114587 34.2916667,29.5208333 C31.6093747,32.619792 30.2708333,36.9114587 30.2708333,42.3958333 C30.2708333,47.8854173 31.6093747,52.182292 34.2916667,55.2916667 C36.9843747,58.3906253 40.4583333,59.9375 44.7083333,59.9375 C48.9583333,59.9375 52.4218747,58.3906253 55.1041667,55.2916667 C57.7968747,52.182292 59.1458333,47.8854173 59.1458333,42.3958333 C59.1458333,36.9114587 57.7968747,32.619792 55.1041667,29.5208333 C52.4218747,26.4114587 48.9583333,24.8541667 44.7083333,24.8541667 Z"></path></clipPath><clipPath id="10910211010710411950110114114"><path d="M30.2916667,0 L45.8125,56.6666667 L58.3958333,0 L85.875,0 L58.2291667,91.4583333 C56.9895827,95.4843747 55.2343747,99.130208 52.9583333,102.395833 C50.677084,105.656251 47.9583333,108.447917 44.7916667,110.770833 C41.6354173,113.104167 38.1458333,114.885416 34.3125,116.125 C30.4895827,117.375 26.5104173,118 22.375,118 C17.0937507,118 12.0208333,117.010416 7.14583333,115.041667 L7.14583333,89.8958333 C11.9062493,91.6562507 15.947916,92.5416667 19.2708333,92.5416667 C25.572916,92.5416667 29.0416667,88.9166667 29.6666667,81.6666667 L0,0 L30.2916667,0 Z"></path></clipPath><clipPath id="9595491131041051034910150"><path d="M6.4375,0 L6.4375,27.5 L23.3333333,27.5 L23.3333333,33.1458333 L0,33.1458333 L0,0 L6.4375,0 Z"></path></clipPath><clipPath id="5311151561071201131060117"><path d="M6.25,9.625 L6.25,34.0833333 L0,34.0833333 L0,9.625 L6.25,9.625 Z M6.25,0 L6.25,6.20833333 L0,6.20833333 L0,0 L6.25,0 Z"></path></clipPath></defs><g transform="translate(22.216497333333365 30.125)"><g clip-path="url(#5445985148113103107118115)"><polygon points="0,0 89.7291667,0 89.7291667,117.854167 0,117.854167 0,0" stroke="none" fill="#8367C7"></polygon></g></g><g transform="translate(122.3648533333333 30.125)"><g clip-path="url(#95113100115113985010311249)"><polygon points="0,0 89.4375,0 89.4375,84.7916667 0,84.7916667 0,0" stroke="none" fill="#8367C7"></polygon></g></g><g transform="translate(217.08064266666668 6.0625)"><g clip-path="url(#11950574812211855114110100)"><polygon points="0,0 61.7916667,0 61.7916667,109 0,109 0,0" stroke="none" fill="#8367C7"></polygon></g></g><g transform="translate(315.977056 29.979166666666657)"><g clip-path="url(#116106116102106521081090102)"><polygon points="0,0 78.25,0 78.25,84.9375 0,84.9375 0,0" stroke="none" fill="#8367C7"></polygon></g></g><g transform="translate(399.68027600000005 6.0625)"><g clip-path="url(#11950574812211855114110100)"><polygon points="0,0 61.7916667,0 61.7916667,109 0,109 0,0" stroke="none" fill="#8367C7"></polygon></g></g><g transform="translate(465.5155146666666 30.125)"><g clip-path="url(#1151104899574511710557113)"><polygon points="0,0 88.3333333,0 88.3333333,84.7916667 0,84.7916667 0,0" stroke="none" fill="#8367C7"></polygon></g></g><g transform="translate(563.799684 30.125)"><g clip-path="url(#1031011165611810410911248118)"><polygon points="0,0 55.4166667,0 55.4166667,83.2291667 0,83.2291667 0,0" stroke="none" fill="#8367C7"></polygon></g></g><g transform="translate(624.0480413333333 6.0625)"><g clip-path="url(#11950574812211855114110100)"><polygon points="0,0 61.7916667,0 61.7916667,109 0,109 0,0" stroke="none" fill="#8367C7"></polygon></g></g><g transform="translate(689.88328 30.125)"><g clip-path="url(#1211121111115299117109118108)"><polygon points="0,0 89.4375,0 89.4375,84.7916667 0,84.7916667 0,0" stroke="none" fill="#8367C7"></polygon></g></g><g transform="translate(784.744916 0.0)"><g clip-path="url(#1221191071021171141171034997)"><polygon points="0,0 97.0416667,0 97.0416667,114.916667 0,114.916667 0,0" stroke="none" fill="#8367C7"></polygon></g></g><g transform="translate(2.842170943040401e-14 201.95562666666666)"><g clip-path="url(#114108115116108103501161060)"><polygon points="0,0 136.958333,0 136.958333,81.6666667 0,81.6666667 0,0" stroke="none" fill="#8367C7"></polygon></g></g><g transform="translate(143.4822933333333 170.26812666666666)"><g clip-path="url(#112108109951161025653119101)"><polygon points="0,0 29.5,0 29.5,113.354167 0,113.354167 0,0" stroke="none" fill="#8367C7"></polygon></g></g><g transform="translate(183.3900306666667 176.33062666666666)"><g clip-path="url(#11950574812211855114110100)"><polygon points="0,0 61.7916667,0 61.7916667,109 0,109 0,0" stroke="none" fill="#8367C7"></polygon></g></g><g transform="translate(253.7252706666667 170.26812666666666)"><g clip-path="url(#108491205410311610557120120)"><polygon points="0,0 82.125,0 82.125,113.354167 0,113.354167 0,0" stroke="none" fill="#8367C7"></polygon></g></g><g transform="translate(380.58522933333336 200.39312666666666)"><g clip-path="url(#494845571029850109114114)"><polygon points="0,0 84.7708333,0 84.7708333,84.7916667 0,84.7916667 0,0" stroke="none" fill="#8367C7"></polygon></g></g><g transform="translate(474.042604 170.26812666666666)"><g clip-path="url(#54511059710055110051100)"><polygon points="0,0 48.9166667,0 48.9166667,114.916667 0,114.916667 0,0" stroke="none" fill="#8367C7"></polygon></g></g><g transform="translate(530.8854213333333 170.26812666666666)"><g clip-path="url(#11248525111612110956108120)"><polygon points="0,0 85.0833333,0 85.0833333,113.354167 0,113.354167 0,0" stroke="none" fill="#8367C7"></polygon></g></g><g transform="translate(612.8577640000002 201.95562666666666)"><g clip-path="url(#114108115116108103501161060)"><polygon points="0,0 136.958333,0 136.958333,81.6666667 0,81.6666667 0,0" stroke="none" fill="#8367C7"></polygon></g></g><g transform="translate(756.3400720000001 200.39312666666666)"><g clip-path="url(#1031011165611810410911248118)"><polygon points="0,0 55.4166667,0 55.4166667,83.2291667 0,83.2291667 0,0" stroke="none" fill="#8367C7"></polygon></g></g><g transform="translate(821.0884293333335 170.26812666666666)"><g clip-path="url(#11248525111612110956108120)"><polygon points="0,0 85.0833333,0 85.0833333,113.354167 0,113.354167 0,0" stroke="none" fill="#8367C7"></polygon></g></g><g transform="translate(233.38384133333327 346.5987533333333)"><g clip-path="url(#11950574812211855114110100)"><polygon points="0,0 61.7916667,0 61.7916667,109 0,109 0,0" stroke="none" fill="#8367C7"></polygon></g></g><g transform="translate(299.21907999999996 370.6612533333333)"><g clip-path="url(#10545114112100112114107106100)"><polygon points="0,0 89.4375,0 89.4375,84.7916667 0,84.7916667 0,0" stroke="none" fill="#8367C7"></polygon></g></g><g transform="translate(394.7017933333334 340.5362533333333)"><g clip-path="url(#1221191071021171141171034997)"><polygon points="0,0 97.0416667,0 97.0416667,114.916667 0,114.916667 0,0" stroke="none" fill="#8367C7"></polygon></g></g><g transform="translate(498.8986119999999 370.6612533333333)"><g clip-path="url(#1151104899574511710557113)"><polygon points="0,0 88.3333333,0 88.3333333,84.7916667 0,84.7916667 0,0" stroke="none" fill="#8367C7"></polygon></g></g><g transform="translate(588.1619479999999 372.2237533333333)"><g clip-path="url(#10910211010710411950110114114)"><polygon points="0,0 85.875,0 85.875,118 0,118 0,0" stroke="none" fill="#8367C7"></polygon></g></g><g transform="translate(410.41920933333336 592.6218319999999)"><g clip-path="url(#9595491131041051034910150)"><polygon points="0,0 23.3333333,0 23.3333333,33.1458333 0,33.1458333 0,0" stroke="none" fill="#918CB7"></polygon></g></g><g transform="translate(446.41911733333336 591.6843319999999)"><g clip-path="url(#5311151561071201131060117)"><polygon points="0,0 6.25,0 6.25,34.0833333 0,34.0833333 0,0" stroke="none" fill="#918CB7"></polygon></g></g><g transform="translate(467.6637333333333 591.6843319999999)"><g clip-path="url(#5311151561071201131060117)"><polygon points="0,0 6.25,0 6.25,34.0833333 0,34.0833333 0,0" stroke="none" fill="#918CB7"></polygon></g></g><g transform="translate(488.90834399999994 591.6843319999999)"><g clip-path="url(#5311151561071201131060117)"><polygon points="0,0 6.25,0 6.25,34.0833333 0,34.0833333 0,0" stroke="none" fill="#918CB7"></polygon></g></g></svg>