<?xml version="1.0" encoding="UTF-8"?><svg version="1.1" width="392px" height="392px" viewBox="0 0 392.0 392.0" xmlns="http://www.w3.org/2000/svg" xmlns:xlink="http://www.w3.org/1999/xlink"><defs><filter id="11495106113575711711251111" x="-23.4693878%" y="-21.6836735%" filterUnits="userSpaceOnUse" width="143.367347%" height="143.367347%"><feGaussianBlur stdDeviation="14.5" in="SourceAlpha" result="10011352113102120120101117106"></feGaussianBlur><feOffset dx="20" dy="27" in="10011352113102120120101117106" result="10810810211811111712110310051"></feOffset><feColorMatrix values="0 0 0 0.0 0 0 0 0 0.0 0 0 0 0 0.0 0 0 0 0 0.5 0" type="matrix" in="10810810211811111712110310051"></feColorMatrix></filter><clipPath id="4911710254571101009710954"><path d="M169,0 C262.336123,0 338,75.6638773 338,169 C338,262.336123 262.336123,338 169,338 C75.6638773,338 0,262.336123 0,169 C0,75.6638773 75.6638773,0 169,0 Z"></path></clipPath><filter id="55108115117119119570104121" x="-130.769221%" y="-15.4798767%" filterUnits="userSpaceOnUse" width="315.38459%" height="126.006192%"><feGaussianBlur stdDeviation="4" in="SourceAlpha" result="12255120109579710248112103"></feGaussianBlur><feOffset dx="" dy="5" in="12255120109579710248112103" result="1091061101109857113112109114"></feOffset><feColorMatrix values="0 0 0 0.0 0 0 0 0 0.0 0 0 0 0 0.0 0 0 0 0 0.5 0" type="matrix" in="1091061101109857113112109114"></feColorMatrix></filter><filter id="100101113107115575211355104" x="-15.7407407%" y="-136.111111%" filterUnits="userSpaceOnUse" width="125.925926%" height="333.333333%"><feGaussianBlur stdDeviation="4" in="SourceAlpha" result="959910055102541051149999"></feGaussianBlur><feOffset dx="4" dy="5" in="959910055102541051149999" result="95000565595119114115"></feOffset><feColorMatrix values="0 0 0 0.0 0 0 0 0 0.0 0 0 0 0 0.0 0 0 0 0 0.5 0" type="matrix" in="95000565595119114115"></feColorMatrix></filter><filter id="114451225711852107104101101" x="-6%" y="-22.3880597%" filterUnits="userSpaceOnUse" width="213%" height="138.80597%"><feGaussianBlur stdDeviation="2" in="SourceAlpha" result="12298951055451569811599"></feGaussianBlur><feOffset dx="5" dy="2" in="12298951055451569811599" result="1071005311511410911910010749"></feOffset><feColorMatrix values="0 0 0 0.0 0 0 0 0 0.0 0 0 0 0 0.0 0 0 0 0 0.5 0" type="matrix" in="1071005311511410911910010749"></feColorMatrix></filter><filter id="011611597105111541055452" x="-13.3333333%" y="-11.9047619%" filterUnits="userSpaceOnUse" width="128.888889%" height="120.634921%"><feGaussianBlur stdDeviation="2" in="SourceAlpha" result="103511181051071011205111451"></feGaussianBlur><feOffset dx="5" dy="2" in="103511181051071011205111451" result="118102951161031191181019554"></feOffset><feColorMatrix values="0 0 0 0.0 0 0 0 0 0.0 0 0 0 0 0.0 0 0 0 0 0.5 0" type="matrix" in="118102951161031191181019554"></feColorMatrix></filter></defs><g transform="translate(7.0 0.0)"><path d="M169,2 C215.115777,2 256.865777,20.6921117 287.086832,50.9131675 C317.307888,81.1342234 336,122.884223 336,169 C336,215.115777 317.307888,256.865777 287.086832,287.086832 C256.865777,317.307888 215.115777,336 169,336 C122.884223,336 81.1342234,317.307888 50.9131675,287.086832 C20.6921117,256.865777 2,215.115777 2,169 C2,122.884223 20.6921117,81.1342234 50.9131675,50.9131675 C81.1342234,20.6921117 122.884223,2 169,2 Z" stroke="none" fill="#000000" filter="url(#11495106113575711711251111)"></path><g clip-path="url(#4911710254571101009710954)"><polygon points="0,0 338,0 338,338 0,338 0,0" stroke="none" fill="#5865F2"></polygon><path d="M169,338 C262.336123,338 338,262.336123 338,169 C338,75.6638773 262.336123,0 169,0 C75.6638773,0 0,75.6638773 0,169 C0,262.336123 75.6638773,338 169,338 Z" stroke="#202125" stroke-width="28" fill="none" stroke-miterlimit="5"></path></g></g><g transform="translate(167.0 291.0)"><text transform="translate(0.7873786407767014 15.0)" font-family="Krungthep" font-size="15.0" font-weight="bold" fill="#FFFFFF" text-anchor="center" letter-spacing="0.7126213592232988">vi</text></g><g transform="translate(176.0 25.0)"><path d="M0.5,143.5 L2,0" stroke="#000000" stroke-width="2" fill="none" stroke-linecap="round" stroke-miterlimit="10" filter="url(#55108115117119119570104121)"></path><path d="M0.5,143.5 L2,0" stroke="#202125" stroke-width="4" fill="none" stroke-linecap="round" stroke-miterlimit="10"></path></g><g transform="translate(33.0 174.0)"><path d="M144.5,0.5 L0.5,0.5" stroke="#000000" stroke-width="2" fill="none" stroke-linecap="round" stroke-miterlimit="10" filter="url(#100101113107115575211355104)"></path><path d="M144.5,0.5 L0.5,0.5" stroke="#202125" stroke-width="4" fill="none" stroke-linecap="round" stroke-miterlimit="10"></path></g><g transform="translate(41.5 143.0)"><g filter="url(#114451225711852107104101101)"><text transform="translate(0.5200888552496821 45.0)" font-family="OriyaMN-Bold, Oriya MN" font-size="50.0" font-weight="bold" fill="#FFFFFF" text-anchor="center" letter-spacing="39.80073503400021">clk</text></g><text transform="translate(0.5200888552496821 45.0)" font-family="OriyaMN-Bold, Oriya MN" font-size="50.0" font-weight="bold" fill="#FFFFFF" text-anchor="center" letter-spacing="39.80073503400021">clk</text></g><g transform="translate(141.0 14.0)"><g filter="url(#011611597105111541055452)"><text transform="translate(0.369263880461169 45.0)"><tspan x="15.3692639px" y="0px" font-family="OriyaMN-Bold, Oriya MN" font-size="50.0" font-weight="bold" fill="#FFFFFF" text-anchor="center" letter-spacing="9.708737864077666">w</tspan><tspan x="25.0250256px" y="59px" font-family="OriyaMN-Bold, Oriya MN" font-size="50.0" font-weight="bold" fill="#FFFFFF" text-anchor="center" letter-spacing="9.708737864077666">r</tspan></text></g><text transform="translate(0 45.0)"><tspan x="15.3692639px" y="0px" font-family="OriyaMN-Bold, Oriya MN" font-size="50.0" font-weight="bold" fill="#FFFFFF" text-anchor="center" letter-spacing="9.708737864077666">w</tspan><tspan x="25.0250256px" y="59px" font-family="OriyaMN-Bold, Oriya MN" font-size="50.0" font-weight="bold" fill="#FFFFFF" text-anchor="center" letter-spacing="9.708737864077666">r</tspan></text></g><g transform="translate(298.0 164.0)"><text transform="translate(0.4252085861650521 15.0)" font-family="Krungthep" font-size="15.0" font-weight="bold" fill="#FFFFFF" text-anchor="center" letter-spacing="0.7126213592232988">iii</text></g></svg>