<?xml version="1.0" encoding="UTF-8"?><svg version="1.1" width="1088px" height="754px" viewBox="0 0 1088.0 754.0" xmlns="http://www.w3.org/2000/svg" xmlns:xlink="http://www.w3.org/1999/xlink"><defs><filter id="48116991141161215251104120" x="-12.2015915%" y="-11.2732095%" filterUnits="userSpaceOnUse" width="122.546419%" height="122.546419%"><feGaussianBlur stdDeviation="14.5" in="SourceAlpha" result="104971005295103995297107"></feGaussianBlur><feOffset dx="20" dy="27" in="104971005295103995297107" result="5310211910110548119103104102"></feOffset><feColorMatrix values="0 0 0 0.0 0 0 0 0 0.0 0 0 0 0 0.0 0 0 0 0 0.5 0" type="matrix" in="5310211910110548119103104102"></feColorMatrix></filter><clipPath id="10911410299113115106995548"><path d="M350,0 C543.299662,0 700,156.700338 700,350 C700,543.299662 543.299662,700 350,700 C156.700338,700 0,543.299662 0,350 C0,156.700338 156.700338,0 350,0 Z"></path></clipPath><filter id="451201121001151121189557106" x="-13.9433509%" y="-12.8824437%" filterUnits="userSpaceOnUse" width="125.764887%" height="125.764887%"><feGaussianBlur stdDeviation="14.5" in="SourceAlpha" result="9811697109450519855114"></feGaussianBlur><feOffset dx="20" dy="27" in="9811697109450519855114" result="541201001141011069948115112"></feOffset><feColorMatrix values="0 0 0 0.0 0 0 0 0 0.0 0 0 0 0 0.0 0 0 0 0 0.5 0" type="matrix" in="541201001141011069948115112"></feColorMatrix></filter><clipPath id="119981111061134856102115116"><path d="M302.906351,0 C470.196909,0 605.812702,135.615793 605.812702,302.906351 C605.812702,470.196909 470.196909,605.812702 302.906351,605.812702 C135.615793,605.812702 0,470.196909 0,302.906351 C0,135.615793 135.615793,0 302.906351,0 Z"></path></clipPath><clipPath id="11797541209711310111197110"><path d="M324.888889,0 L324.888889,129 L0,129 L0,0 L324.888889,0 Z"></path></clipPath><filter id="1121091229510810712252117109" x="-9.88422964%" y="-111.15897%" filterUnits="userSpaceOnUse" width="114.315091%" height="269.605595%"><feGaussianBlur stdDeviation="4" in="SourceAlpha" result="118451181025211011710010849"></feGaussianBlur><feOffset dx="4" dy="5" in="118451181025211011710010849" result="11611349121109105985399108"></feOffset><feColorMatrix values="0 0 0 0.0 0 0 0 0 0.0 0 0 0 0 0.0 0 0 0 0 0.5 0" type="matrix" in="11611349121109105985399108"></feColorMatrix></filter><clipPath id="5750555510151108112117119"><path d=""></path></clipPath><filter id="118121101100505197122120113" x="-115.312197%" y="-9.21284973%" filterUnits="userSpaceOnUse" width="274.442752%" height="113.819275%"><feGaussianBlur stdDeviation="4" in="SourceAlpha" result="12012111556117116120102110113"></feGaussianBlur><feOffset dx="4" dy="5" in="12012111556117116120102110113" result="10012011611251113551179898"></feOffset><feColorMatrix values="0 0 0 0.0 0 0 0 0 0.0 0 0 0 0 0.0 0 0 0 0 0.5 0" type="matrix" in="10012011611251113551179898"></feColorMatrix></filter><clipPath id="9910054545011757111102121"><path d="M1472,0 L1472,379 L0,379 L0,0 L1472,0 Z"></path></clipPath><filter id="9511311612210710410810549106" x="-3.19148936%" y="-14.3552311%" filterUnits="userSpaceOnUse" width="107.047872%" height="125.790754%"><feGaussianBlur stdDeviation="8" in="SourceAlpha" result="9797551031201204912212051"></feGaussianBlur><feOffset dx="21" dy="10" in="9797551031201204912212051" result="122451009810811111111855101"></feOffset><feColorMatrix values="0 0 0 0.0 0 0 0 0 0.0 0 0 0 0 0.0 0 0 0 0 0.5 0" type="matrix" in="122451009810811111111855101"></feColorMatrix></filter></defs><g transform="translate(174.3655732867619 0.0)"><path d="M350,2 C446.097546,2 533.097546,40.9512268 596.07316,103.92684 C659.048773,166.902454 698,253.902454 698,350 C698,446.097546 659.048773,533.097546 596.07316,596.07316 C533.097546,659.048773 446.097546,698 350,698 C253.902454,698 166.902454,659.048773 103.92684,596.07316 C40.9512268,533.097546 2,446.097546 2,350 C2,253.902454 40.9512268,166.902454 103.92684,103.92684 C166.902454,40.9512268 253.902454,2 350,2 Z" stroke="none" fill="#000000" filter="url(#48116991141161215251104120)"></path><g clip-path="url(#10911410299113115106995548)"><polygon points="0,0 700,0 700,700 0,700 0,0" stroke="none" fill="#8A79BF"></polygon><path d="M350,700 C543.299662,700 700,543.299662 700,350 C700,156.700338 543.299662,0 350,0 C156.700338,0 0,156.700338 0,350 C0,543.299662 156.700338,700 350,700 Z" stroke="#202125" stroke-width="28" fill="none" stroke-miterlimit="5"></path></g></g><g transform="translate(220.71018255676813 46.60097706383385)"><path d="M302.906351,2 C385.999345,2 461.225933,35.6800905 515.679272,90.1334297 C570.132611,144.586769 603.812702,219.813357 603.812702,302.906351 C603.812702,385.999345 570.132611,461.225933 515.679272,515.679272 C461.225933,570.132611 385.999345,603.812702 302.906351,603.812702 C219.813357,603.812702 144.586769,570.132611 90.1334297,515.679272 C35.6800905,461.225933 2,385.999345 2,302.906351 C2,219.813357 35.6800905,144.586769 90.1334297,90.1334297 C144.586769,35.6800905 219.813357,2 302.906351,2 Z" stroke="none" fill="#000000" filter="url(#451201121001151121189557106)"></path><g clip-path="url(#119981111061134856102115116)"><polygon points="0,0 605.812702,0 605.812702,605.812702 0,605.812702 0,0" stroke="none" fill="#474554"></polygon><path d="M302.906351,605.812702 C470.196909,605.812702 605.812702,470.196909 605.812702,302.906351 C605.812702,135.615793 470.196909,0 302.906351,0 C135.615793,0 0,135.615793 0,302.906351 C0,470.196909 135.615793,605.812702 302.906351,605.812702 Z" stroke="#202125" stroke-width="28" fill="none" stroke-miterlimit="5"></path></g></g><g transform="translate(605.9999999999995 306.0)"><g clip-path="url(#11797541209711310111197110)"><text transform="translate(123.44565557764474 56.0)" font-family="CrimsonPro-Light, Crimson Pro" font-size="63.0" font-weight="300" fill="#F0FFF1" text-anchor="center" letter-spacing="3.364872949024865">liii</text></g></g><g transform="translate(102.99999999999909 306.0)"><g clip-path="url(#11797541209711310111197110)"><text transform="translate(136.4389464954196 56.0)" font-family="CrimsonPro-Light, Crimson Pro" font-size="63.0" font-weight="300" fill="#F0FFF1" text-anchor="center" letter-spacing="3.364872949024865">xi</text></g></g><g transform="translate(253.431681145948 348.9769154228816)"><g filter="url(#1121091229510810712252117109)"><polygon points="" stroke="none" fill="#000000"></polygon><path d="M269.396667,1.23666667 L0,0.473333333" stroke="#000000" stroke-width="8" fill="none" stroke-linecap="round" stroke-miterlimit="10"></path></g><g clip-path="url(#5750555510151108112117119)"><polygon points="0,0.473333333 269.396667,0.473333333 269.396667,1.23666667 0,1.23666667 0,0.473333333" stroke="none" fill="#FFFFFF"></polygon></g><path d="M269.396667,1.23666667 L0,0.473333333" stroke="#202125" stroke-width="10" fill="none" stroke-linecap="round" stroke-miterlimit="10"></path></g><g transform="translate(358.99999999999955 50.54545454545587)"><g clip-path="url(#11797541209711310111197110)"><text transform="translate(126.69693970840717 56.0)" font-family="CrimsonPro-Light, Crimson Pro" font-size="63.0" font-weight="300" fill="#F0FFF1" text-anchor="center" letter-spacing="3.364872949024865">xii</text></g></g><g transform="translate(522.1183478126154 69.45024875621675)"><g filter="url(#118121101100505197122120113)"><polygon points="" stroke="none" fill="#000000"></polygon><path d="M1.23666667,279.923333 L1.31333333,0" stroke="#000000" stroke-width="8" fill="none" stroke-linecap="round" stroke-miterlimit="10"></path></g><g clip-path="url(#5750555510151108112117119)"><polygon points="1.23666667,0 1.31333333,0 1.31333333,279.923333 1.23666667,279.923333 1.23666667,0" stroke="none" fill="#FFFFFF"></polygon></g><path d="M1.23666667,279.923333 L1.31333333,0" stroke="#202125" stroke-width="10" fill="none" stroke-linecap="round" stroke-miterlimit="10"></path></g><g transform="translate(-215.0 148.1344184452173)"><g clip-path="url(#9910054545011757111102121)"><g filter="url(#9511311612210710410810549106)"><text transform="translate(203.86450663863775 281.0)" font-family="Limelight-Regular, Limelight" font-size="309.0" font-weight="normal" fill="#F0FFF1" text-anchor="center" letter-spacing="-1.513592056629214">clkwrk</text></g><text transform="translate(203.86450663863775 281.0)" font-family="Limelight-Regular, Limelight" font-size="309.0" font-weight="normal" fill="#F0FFF1" text-anchor="center" letter-spacing="-1.513592056629214">clkwrk</text></g></g><g transform="translate(361.99999999999955 573.0)"><g clip-path="url(#11797541209711310111197110)"><text transform="translate(136.6235168079196 56.0)" font-family="CrimsonPro-Light, Crimson Pro" font-size="63.0" font-weight="300" fill="#F0FFF1" text-anchor="center" letter-spacing="3.364872949024865">vi</text></g></g></svg>