<?xml version="1.0" encoding="UTF-8"?><svg version="1.1" width="1038px" height="754px" viewBox="0 0 1038.0 754.0" xmlns="http://www.w3.org/2000/svg" xmlns:xlink="http://www.w3.org/1999/xlink"><defs><filter id="5711211248120514811299102" x="-12.2015915%" y="-11.2732095%" filterUnits="userSpaceOnUse" width="122.546419%" height="122.546419%"><feGaussianBlur stdDeviation="14.5" in="SourceAlpha" result="101011710353120112994854"></feGaussianBlur><feOffset dx="20" dy="27" in="101011710353120112994854" result="979811297115954910010045"></feOffset><feColorMatrix values="0 0 0 0.0 0 0 0 0 0.0 0 0 0 0 0.0 0 0 0 0 0.5 0" type="matrix" in="979811297115954910010045"></feColorMatrix></filter><clipPath id="11012110210498122104111114108"><path d="M350,0 C543.299662,0 700,156.700338 700,350 C700,543.299662 543.299662,700 350,700 C156.700338,700 0,543.299662 0,350 C0,156.700338 156.700338,0 350,0 Z"></path></clipPath><filter id="495050107108103101565051" x="-13.9433509%" y="-12.8824437%" filterUnits="userSpaceOnUse" width="125.764887%" height="125.764887%"><feGaussianBlur stdDeviation="14.5" in="SourceAlpha" result="09797100561209510311554"></feGaussianBlur><feOffset dx="20" dy="27" in="09797100561209510311554" result="451171149997544911210898"></feOffset><feColorMatrix values="0 0 0 0.0 0 0 0 0 0.0 0 0 0 0 0.0 0 0 0 0 0.5 0" type="matrix" in="451171149997544911210898"></feColorMatrix></filter><clipPath id="12210910110711411410056119109"><path d="M302.906351,0 C470.196909,0 605.812702,135.615793 605.812702,302.906351 C605.812702,470.196909 470.196909,605.812702 302.906351,605.812702 C135.615793,605.812702 0,470.196909 0,302.906351 C0,135.615793 135.615793,0 302.906351,0 Z"></path></clipPath><clipPath id="5510598121571209710548111"><path d="M324.888889,0 L324.888889,129 L0,129 L0,0 L324.888889,0 Z"></path></clipPath><filter id="102525712112111811150101107" x="-9.88422964%" y="-111.15897%" filterUnits="userSpaceOnUse" width="114.315091%" height="269.605595%"><feGaussianBlur stdDeviation="4" in="SourceAlpha" result="10799561181194855102113114"></feGaussianBlur><feOffset dx="4" dy="5" in="10799561181194855102113114" result="57106117561081171011080100"></feOffset><feColorMatrix values="0 0 0 0.0 0 0 0 0 0.0 0 0 0 0 0.0 0 0 0 0 0.5 0" type="matrix" in="57106117561081171011080100"></feColorMatrix></filter><clipPath id="11110112012197118559752104"><path d=""></path></clipPath><filter id="11450505511610810310012249" x="-115.312197%" y="-9.21284973%" filterUnits="userSpaceOnUse" width="274.442752%" height="113.819275%"><feGaussianBlur stdDeviation="4" in="SourceAlpha" result="11310710411500113575757"></feGaussianBlur><feOffset dx="4" dy="5" in="11310710411500113575757" result="9811357951164551114119110"></feOffset><feColorMatrix values="0 0 0 0.0 0 0 0 0 0.0 0 0 0 0 0.0 0 0 0 0 0.5 0" type="matrix" in="9811357951164551114119110"></feColorMatrix></filter><clipPath id="50551181161145151100108107"><path d="M1472,0 L1472,379 L0,379 L0,0 L1472,0 Z"></path></clipPath><filter id="119104107118108104459510155" x="-3.19148936%" y="-14.3552311%" filterUnits="userSpaceOnUse" width="107.047872%" height="125.790754%"><feGaussianBlur stdDeviation="8" in="SourceAlpha" result="4549100521105151116115107"></feGaussianBlur><feOffset dx="21" dy="10" in="4549100521105151116115107" result="5411410611712011112198115100"></feOffset><feColorMatrix values="0 0 0 0.0 0 0 0 0 0.0 0 0 0 0 0.0 0 0 0 0 0.5 0" type="matrix" in="5411410611712011112198115100"></feColorMatrix></filter></defs><g transform="translate(136.3655732867619 0.0)"><path d="M350,2 C446.097546,2 533.097546,40.9512268 596.07316,103.92684 C659.048773,166.902454 698,253.902454 698,350 C698,446.097546 659.048773,533.097546 596.07316,596.07316 C533.097546,659.048773 446.097546,698 350,698 C253.902454,698 166.902454,659.048773 103.92684,596.07316 C40.9512268,533.097546 2,446.097546 2,350 C2,253.902454 40.9512268,166.902454 103.92684,103.92684 C166.902454,40.9512268 253.902454,2 350,2 Z" stroke="none" fill="#000000" filter="url(#5711211248120514811299102)"></path><g clip-path="url(#11012110210498122104111114108)"><polygon points="0,0 700,0 700,700 0,700 0,0" stroke="none" fill="#918CB7"></polygon><path d="M350,700 C543.299662,700 700,543.299662 700,350 C700,156.700338 543.299662,0 350,0 C156.700338,0 0,156.700338 0,350 C0,543.299662 156.700338,700 350,700 Z" stroke="#202125" stroke-width="28" fill="none" stroke-miterlimit="5"></path></g></g><g transform="translate(182.7101825567679 46.600977063830214)"><path d="M302.906351,2 C385.999345,2 461.225933,35.6800905 515.679272,90.1334297 C570.132611,144.586769 603.812702,219.813357 603.812702,302.906351 C603.812702,385.999345 570.132611,461.225933 515.679272,515.679272 C461.225933,570.132611 385.999345,603.812702 302.906351,603.812702 C219.813357,603.812702 144.586769,570.132611 90.1334297,515.679272 C35.6800905,461.225933 2,385.999345 2,302.906351 C2,219.813357 35.6800905,144.586769 90.1334297,90.1334297 C144.586769,35.6800905 219.813357,2 302.906351,2 Z" stroke="none" fill="#000000" filter="url(#495050107108103101565051)"></path><g clip-path="url(#12210910110711411410056119109)"><polygon points="0,0 605.812702,0 605.812702,605.812702 0,605.812702 0,0" stroke="none" fill="#474453"></polygon><path d="M302.906351,605.812702 C470.196909,605.812702 605.812702,470.196909 605.812702,302.906351 C605.812702,135.615793 470.196909,0 302.906351,0 C135.615793,0 0,135.615793 0,302.906351 C0,470.196909 135.615793,605.812702 302.906351,605.812702 Z" stroke="#202125" stroke-width="28" fill="none" stroke-miterlimit="5"></path></g></g><g transform="translate(568.0 306.0)"><g clip-path="url(#5510598121571209710548111)"><text transform="translate(123.44565557764474 56.0)" font-family="CrimsonPro-Light, Crimson Pro" font-size="63.0" font-weight="300" fill="#F0FFF1" text-anchor="center" letter-spacing="3.364872949024865">liii</text></g></g><g transform="translate(64.99999999999909 306.0)"><g clip-path="url(#5510598121571209710548111)"><text transform="translate(136.4389464954196 56.0)" font-family="CrimsonPro-Light, Crimson Pro" font-size="63.0" font-weight="300" fill="#F0FFF1" text-anchor="center" letter-spacing="3.364872949024865">xi</text></g></g><g transform="translate(215.431681145948 348.97691542287976)"><g filter="url(#102525712112111811150101107)"><polygon points="" stroke="none" fill="#000000"></polygon><path d="M269.396667,1.23666667 L0,0.473333333" stroke="#000000" stroke-width="8" fill="none" stroke-linecap="round" stroke-miterlimit="10"></path></g><g clip-path="url(#11110112012197118559752104)"><polygon points="0,0.473333333 269.396667,0.473333333 269.396667,1.23666667 0,1.23666667 0,0.473333333" stroke="none" fill="#FFFFFF"></polygon></g><path d="M269.396667,1.23666667 L0,0.473333333" stroke="#202125" stroke-width="10" fill="none" stroke-linecap="round" stroke-miterlimit="10"></path></g><g transform="translate(321.0 50.54545454545041)"><g clip-path="url(#5510598121571209710548111)"><text transform="translate(126.69693970840717 56.0)" font-family="CrimsonPro-Light, Crimson Pro" font-size="63.0" font-weight="300" fill="#F0FFF1" text-anchor="center" letter-spacing="3.364872949024865">xii</text></g></g><g transform="translate(484.11834781261496 69.45024875622039)"><g filter="url(#11450505511610810310012249)"><polygon points="" stroke="none" fill="#000000"></polygon><path d="M1.23666667,279.923333 L1.31333333,0" stroke="#000000" stroke-width="8" fill="none" stroke-linecap="round" stroke-miterlimit="10"></path></g><g clip-path="url(#11110112012197118559752104)"><polygon points="1.23666667,0 1.31333333,0 1.31333333,279.923333 1.23666667,279.923333 1.23666667,0" stroke="none" fill="#FFFFFF"></polygon></g><path d="M1.23666667,279.923333 L1.31333333,0" stroke="#202125" stroke-width="10" fill="none" stroke-linecap="round" stroke-miterlimit="10"></path></g><g transform="translate(-245.0 148.13441844521913)"><g clip-path="url(#50551181161145151100108107)"><g filter="url(#119104107118108104459510155)"><text transform="translate(233.86450663863775 281.0)" font-family="Limelight-Regular, Limelight" font-size="309.0" font-weight="normal" fill="#F0FFF1" text-anchor="center" letter-spacing="-11.51359205662921">clkwrk</text></g><text transform="translate(233.86450663863775 281.0)" font-family="Limelight-Regular, Limelight" font-size="309.0" font-weight="normal" fill="#F0FFF1" text-anchor="center" letter-spacing="-11.51359205662921">clkwrk</text></g></g><g transform="translate(324.0 573.0)"><g clip-path="url(#5510598121571209710548111)"><text transform="translate(136.6235168079196 56.0)" font-family="CrimsonPro-Light, Crimson Pro" font-size="63.0" font-weight="300" fill="#F0FFF1" text-anchor="center" letter-spacing="3.364872949024865">vi</text></g></g></svg>